<svg width="100" height="100" viewBox="0 0 100 100" fill="none" xmlns="http://www.w3.org/2000/svg">
<path d="M76.1415 2.22217H23.3574C9.31107 2.22217 2.22217 9.03033 2.22217 22.5154V94.6881C2.22217 96.4558 3.17302 97.5442 5.22161 97.5442H21.1774C23.0869 97.5442 24.316 96.4558 24.316 94.6881V91.9479C24.316 85.2632 27.1377 81.6199 34.1493 80.9174H76.1415C91.5485 80.9174 98.5059 74.2482 98.5059 59.6747V23.4649C98.5059 8.89139 91.5485 2.22217 76.1415 2.22217ZM76.4353 53.5458C76.4353 61.4501 74.6418 63.0788 65.226 63.0788H42.8616C33.4535 63.0788 27.4469 66.2127 24.3083 72.3416V27.8261C24.3083 21.6972 25.808 20.0608 33.3066 20.0608H65.226C74.6418 20.0608 76.4353 21.6972 76.4353 29.5938V53.5458Z" fill="#FAFAFC"/>
</svg>
