<svg width="24" height="24" viewBox="0 0 24 24" fill="none" xmlns="http://www.w3.org/2000/svg">
<rect width="24" height="24" rx="5" fill="#FD951F"/>
<path d="M15.6598 5.31104H8.27003C6.30354 5.31104 5.3111 6.26418 5.3111 8.15209V18.2563C5.3111 18.5037 5.44422 18.6561 5.73102 18.6561H7.96483C8.23216 18.6561 8.40424 18.5037 8.40424 18.2563V17.8726C8.40424 16.9368 8.79927 16.4267 9.78089 16.3284H15.6598C17.8168 16.3284 18.7908 15.3947 18.7908 13.3544V8.28501C18.7908 6.24473 17.8168 5.31104 15.6598 5.31104ZM15.7009 12.4963C15.7009 13.6029 15.4498 13.831 14.1316 13.831H11.0006C9.68348 13.831 8.84256 14.2697 8.40315 15.1278V8.89559C8.40315 8.03754 8.61312 7.80844 9.66292 7.80844H14.1316C15.4498 7.80844 15.7009 8.03754 15.7009 9.14306V12.4963Z" fill="#FAFAFC"/>
</svg>
